<svg xmlns="http://www.w3.org/2000/svg" version="1.1" xmlns:xlink="http://www.w3.org/1999/xlink" xmlns:svgjs="http://svgjs.dev/svgjs" viewBox="0 0 600 600"><path d="M-8.383235635515803 137.4251496420648C-2.3952119173176625 154.94011893136764 14.520955500844366 113.92215129001399 27.54490667367304 102.39520426852961C40.568857846501714 90.86825724704524 52.8443038243485 78.74250893059829 69.76047140145624 68.26346751315852C86.67663897856399 57.78442609571874 106.88622289681757 49.25149397317032 129.04191213631952 39.52095576389094C151.19760137582148 29.790417554611558 175.7484983383052 14.371255916987455 202.69460683846796 9.880238257482247C229.6407153386307 5.38922059797704 266.1676649032466 10.029939534897203 290.7185631372961 12.574849806859689C315.2694613713456 15.119760078822171 329.0419172225825 20.35928126437922 349.99999624276484 25.14969988925715C370.95807526294715 29.94011851413508 393.71254608814246 37.125745179886216 416.46703725838984 41.31736155612727C439.2215284286372 45.50897793236832 466.46706268970496 52.99400842451512 486.5269432642492 50.29939814670344C506.5868238387935 47.604787868891755 520.3592593449783 34.13173541688382 536.8263207056555 25.14969988925715C553.2933820663326 16.16766436163048 676.197570818507 1.0479035403674821 585.3293114283117 -3.5928150190566015C494.4610520381165 -8.233533578480685 90.56885554178878 -26.19760557747424 -8.383235635515803 -2.694611467287345C-107.33532681282038 20.80838264289955 -14.371259353713942 119.91018035276194 -8.383235635515803 137.4251496420648C-2.3952119173176625 154.94011893136764 14.520955500844366 113.92215129001399 27.54490667367304 102.39520426852961 " fill="hsl(220, 14%, 96%)"></path></svg>